<mxfile host="app.diagrams.net" modified="2022-12-06T12:57:12.819Z" agent="5.0 (Windows NT 10.0; Win64; x64) AppleWebKit/537.36 (KHTML, like Gecko) Chrome/108.0.0.0 Safari/537.36" version="20.6.0" etag="uQDwkw4dPwdBudwindo9" type="github">
  <diagram id="UwZDZyedOEsjFMlyVJzv" name="第 1 页">
    <mxGraphModel dx="981" dy="542" grid="1" gridSize="10" guides="1" tooltips="1" connect="1" arrows="1" fold="1" page="1" pageScale="1" pageWidth="827" pageHeight="1169" math="0" shadow="0">
      <root>
        <mxCell id="0" />
        <mxCell id="1" parent="0" />
        <mxCell id="7il1dGLbTCJR8h2ghz_C-1" value="" style="rounded=1;whiteSpace=wrap;html=1;" vertex="1" parent="1">
          <mxGeometry x="80" y="240" width="390" height="360" as="geometry" />
        </mxCell>
        <mxCell id="7il1dGLbTCJR8h2ghz_C-57" value="" style="shape=mxgraph.mockup.containers.marginRect;rectMarginTop=10;strokeColor=#666666;strokeWidth=1;dashed=0;rounded=1;arcSize=5;recursiveResize=0;" vertex="1" parent="1">
          <mxGeometry x="95" y="270" width="150" height="200" as="geometry" />
        </mxCell>
        <mxCell id="7il1dGLbTCJR8h2ghz_C-58" value="寄存器组" style="shape=rect;strokeColor=none;fillColor=#008cff;strokeWidth=1;dashed=0;rounded=1;arcSize=20;fontColor=#ffffff;fontSize=17;spacing=2;spacingTop=-2;align=left;autosize=1;spacingLeft=4;resizeWidth=0;resizeHeight=0;perimeter=none;" vertex="1" parent="7il1dGLbTCJR8h2ghz_C-57">
          <mxGeometry x="30" y="-10" width="90" height="30" as="geometry" />
        </mxCell>
        <mxCell id="7il1dGLbTCJR8h2ghz_C-35" value="" style="shape=table;html=1;whiteSpace=wrap;startSize=0;container=1;collapsible=0;childLayout=tableLayout;" vertex="1" parent="1">
          <mxGeometry x="110" y="310" width="120" height="130" as="geometry" />
        </mxCell>
        <mxCell id="7il1dGLbTCJR8h2ghz_C-36" value="" style="shape=tableRow;horizontal=0;startSize=0;swimlaneHead=0;swimlaneBody=0;top=0;left=0;bottom=0;right=0;collapsible=0;dropTarget=0;fillColor=none;points=[[0,0.5],[1,0.5]];portConstraint=eastwest;" vertex="1" parent="7il1dGLbTCJR8h2ghz_C-35">
          <mxGeometry width="120" height="26" as="geometry" />
        </mxCell>
        <mxCell id="7il1dGLbTCJR8h2ghz_C-37" value="" style="shape=partialRectangle;html=1;whiteSpace=wrap;connectable=0;fillColor=none;top=0;left=0;bottom=0;right=0;overflow=hidden;" vertex="1" parent="7il1dGLbTCJR8h2ghz_C-36">
          <mxGeometry width="60" height="26" as="geometry">
            <mxRectangle width="60" height="26" as="alternateBounds" />
          </mxGeometry>
        </mxCell>
        <mxCell id="7il1dGLbTCJR8h2ghz_C-38" value="" style="shape=partialRectangle;html=1;whiteSpace=wrap;connectable=0;fillColor=none;top=0;left=0;bottom=0;right=0;overflow=hidden;" vertex="1" parent="7il1dGLbTCJR8h2ghz_C-36">
          <mxGeometry x="60" width="60" height="26" as="geometry">
            <mxRectangle width="60" height="26" as="alternateBounds" />
          </mxGeometry>
        </mxCell>
        <mxCell id="7il1dGLbTCJR8h2ghz_C-40" value="" style="shape=tableRow;horizontal=0;startSize=0;swimlaneHead=0;swimlaneBody=0;top=0;left=0;bottom=0;right=0;collapsible=0;dropTarget=0;fillColor=none;points=[[0,0.5],[1,0.5]];portConstraint=eastwest;" vertex="1" parent="7il1dGLbTCJR8h2ghz_C-35">
          <mxGeometry y="26" width="120" height="26" as="geometry" />
        </mxCell>
        <mxCell id="7il1dGLbTCJR8h2ghz_C-41" value="" style="shape=partialRectangle;html=1;whiteSpace=wrap;connectable=0;fillColor=none;top=0;left=0;bottom=0;right=0;overflow=hidden;" vertex="1" parent="7il1dGLbTCJR8h2ghz_C-40">
          <mxGeometry width="60" height="26" as="geometry">
            <mxRectangle width="60" height="26" as="alternateBounds" />
          </mxGeometry>
        </mxCell>
        <mxCell id="7il1dGLbTCJR8h2ghz_C-42" value="" style="shape=partialRectangle;html=1;whiteSpace=wrap;connectable=0;fillColor=none;top=0;left=0;bottom=0;right=0;overflow=hidden;" vertex="1" parent="7il1dGLbTCJR8h2ghz_C-40">
          <mxGeometry x="60" width="60" height="26" as="geometry">
            <mxRectangle width="60" height="26" as="alternateBounds" />
          </mxGeometry>
        </mxCell>
        <mxCell id="7il1dGLbTCJR8h2ghz_C-44" value="" style="shape=tableRow;horizontal=0;startSize=0;swimlaneHead=0;swimlaneBody=0;top=0;left=0;bottom=0;right=0;collapsible=0;dropTarget=0;fillColor=none;points=[[0,0.5],[1,0.5]];portConstraint=eastwest;" vertex="1" parent="7il1dGLbTCJR8h2ghz_C-35">
          <mxGeometry y="52" width="120" height="26" as="geometry" />
        </mxCell>
        <mxCell id="7il1dGLbTCJR8h2ghz_C-45" value="" style="shape=partialRectangle;html=1;whiteSpace=wrap;connectable=0;fillColor=none;top=0;left=0;bottom=0;right=0;overflow=hidden;" vertex="1" parent="7il1dGLbTCJR8h2ghz_C-44">
          <mxGeometry width="60" height="26" as="geometry">
            <mxRectangle width="60" height="26" as="alternateBounds" />
          </mxGeometry>
        </mxCell>
        <mxCell id="7il1dGLbTCJR8h2ghz_C-46" value="" style="shape=partialRectangle;html=1;whiteSpace=wrap;connectable=0;fillColor=none;top=0;left=0;bottom=0;right=0;overflow=hidden;" vertex="1" parent="7il1dGLbTCJR8h2ghz_C-44">
          <mxGeometry x="60" width="60" height="26" as="geometry">
            <mxRectangle width="60" height="26" as="alternateBounds" />
          </mxGeometry>
        </mxCell>
        <mxCell id="7il1dGLbTCJR8h2ghz_C-48" style="shape=tableRow;horizontal=0;startSize=0;swimlaneHead=0;swimlaneBody=0;top=0;left=0;bottom=0;right=0;collapsible=0;dropTarget=0;fillColor=none;points=[[0,0.5],[1,0.5]];portConstraint=eastwest;" vertex="1" parent="7il1dGLbTCJR8h2ghz_C-35">
          <mxGeometry y="78" width="120" height="26" as="geometry" />
        </mxCell>
        <mxCell id="7il1dGLbTCJR8h2ghz_C-49" style="shape=partialRectangle;html=1;whiteSpace=wrap;connectable=0;fillColor=none;top=0;left=0;bottom=0;right=0;overflow=hidden;" vertex="1" parent="7il1dGLbTCJR8h2ghz_C-48">
          <mxGeometry width="60" height="26" as="geometry">
            <mxRectangle width="60" height="26" as="alternateBounds" />
          </mxGeometry>
        </mxCell>
        <mxCell id="7il1dGLbTCJR8h2ghz_C-50" style="shape=partialRectangle;html=1;whiteSpace=wrap;connectable=0;fillColor=none;top=0;left=0;bottom=0;right=0;overflow=hidden;" vertex="1" parent="7il1dGLbTCJR8h2ghz_C-48">
          <mxGeometry x="60" width="60" height="26" as="geometry">
            <mxRectangle width="60" height="26" as="alternateBounds" />
          </mxGeometry>
        </mxCell>
        <mxCell id="7il1dGLbTCJR8h2ghz_C-51" style="shape=tableRow;horizontal=0;startSize=0;swimlaneHead=0;swimlaneBody=0;top=0;left=0;bottom=0;right=0;collapsible=0;dropTarget=0;fillColor=none;points=[[0,0.5],[1,0.5]];portConstraint=eastwest;" vertex="1" parent="7il1dGLbTCJR8h2ghz_C-35">
          <mxGeometry y="104" width="120" height="26" as="geometry" />
        </mxCell>
        <mxCell id="7il1dGLbTCJR8h2ghz_C-52" style="shape=partialRectangle;html=1;whiteSpace=wrap;connectable=0;fillColor=none;top=0;left=0;bottom=0;right=0;overflow=hidden;" vertex="1" parent="7il1dGLbTCJR8h2ghz_C-51">
          <mxGeometry width="60" height="26" as="geometry">
            <mxRectangle width="60" height="26" as="alternateBounds" />
          </mxGeometry>
        </mxCell>
        <mxCell id="7il1dGLbTCJR8h2ghz_C-53" style="shape=partialRectangle;html=1;whiteSpace=wrap;connectable=0;fillColor=none;top=0;left=0;bottom=0;right=0;overflow=hidden;" vertex="1" parent="7il1dGLbTCJR8h2ghz_C-51">
          <mxGeometry x="60" width="60" height="26" as="geometry">
            <mxRectangle width="60" height="26" as="alternateBounds" />
          </mxGeometry>
        </mxCell>
        <mxCell id="7il1dGLbTCJR8h2ghz_C-55" value="" style="shape=mxgraph.mockup.containers.marginRect;rectMarginTop=10;strokeColor=#666666;strokeWidth=1;dashed=0;rounded=1;arcSize=5;recursiveResize=0;" vertex="1" parent="1">
          <mxGeometry x="95" y="475" width="150" height="200" as="geometry" />
        </mxCell>
        <mxCell id="7il1dGLbTCJR8h2ghz_C-56" value="运算器" style="shape=rect;strokeColor=none;fillColor=#008cff;strokeWidth=1;dashed=0;rounded=1;arcSize=20;fontColor=#ffffff;fontSize=17;spacing=2;spacingTop=-2;align=left;autosize=1;spacingLeft=4;resizeWidth=0;resizeHeight=0;perimeter=none;" vertex="1" parent="7il1dGLbTCJR8h2ghz_C-55">
          <mxGeometry x="35" width="80" height="30" as="geometry" />
        </mxCell>
        <mxCell id="7il1dGLbTCJR8h2ghz_C-60" value="ALU" style="rounded=0;whiteSpace=wrap;html=1;" vertex="1" parent="7il1dGLbTCJR8h2ghz_C-55">
          <mxGeometry x="15" y="40" width="120" height="30" as="geometry" />
        </mxCell>
        <mxCell id="7il1dGLbTCJR8h2ghz_C-61" value="ALU" style="rounded=0;whiteSpace=wrap;html=1;" vertex="1" parent="7il1dGLbTCJR8h2ghz_C-55">
          <mxGeometry x="15" y="85" width="120" height="30" as="geometry" />
        </mxCell>
        <mxCell id="7il1dGLbTCJR8h2ghz_C-62" value="" style="shape=mxgraph.mockup.containers.marginRect;rectMarginTop=10;strokeColor=#b85450;strokeWidth=1;dashed=0;rounded=1;arcSize=5;recursiveResize=0;fillColor=#f8cecc;" vertex="1" parent="1">
          <mxGeometry x="280" y="260" width="150" height="250" as="geometry" />
        </mxCell>
        <mxCell id="7il1dGLbTCJR8h2ghz_C-63" value="控制器" style="shape=rect;strokeColor=none;fillColor=#008cff;strokeWidth=1;dashed=0;rounded=1;arcSize=20;fontColor=#ffffff;fontSize=17;spacing=2;spacingTop=-2;align=left;autosize=1;spacingLeft=4;resizeWidth=0;resizeHeight=0;perimeter=none;" vertex="1" parent="7il1dGLbTCJR8h2ghz_C-62">
          <mxGeometry x="35" width="80" height="30" as="geometry" />
        </mxCell>
        <mxCell id="7il1dGLbTCJR8h2ghz_C-67" style="edgeStyle=orthogonalEdgeStyle;rounded=0;orthogonalLoop=1;jettySize=auto;html=1;exitX=0.5;exitY=1;exitDx=0;exitDy=0;entryX=0.5;entryY=0;entryDx=0;entryDy=0;" edge="1" parent="7il1dGLbTCJR8h2ghz_C-62" source="7il1dGLbTCJR8h2ghz_C-64" target="7il1dGLbTCJR8h2ghz_C-65">
          <mxGeometry relative="1" as="geometry" />
        </mxCell>
        <mxCell id="7il1dGLbTCJR8h2ghz_C-64" value="MBR" style="rounded=0;whiteSpace=wrap;html=1;fillColor=#dae8fc;strokeColor=#6c8ebf;" vertex="1" parent="7il1dGLbTCJR8h2ghz_C-62">
          <mxGeometry x="15" y="40" width="120" height="30" as="geometry" />
        </mxCell>
        <mxCell id="7il1dGLbTCJR8h2ghz_C-68" style="edgeStyle=orthogonalEdgeStyle;rounded=0;orthogonalLoop=1;jettySize=auto;html=1;exitX=0.5;exitY=1;exitDx=0;exitDy=0;entryX=0.5;entryY=0;entryDx=0;entryDy=0;" edge="1" parent="7il1dGLbTCJR8h2ghz_C-62" source="7il1dGLbTCJR8h2ghz_C-65" target="7il1dGLbTCJR8h2ghz_C-66">
          <mxGeometry relative="1" as="geometry" />
        </mxCell>
        <mxCell id="7il1dGLbTCJR8h2ghz_C-65" value="IR" style="rounded=0;whiteSpace=wrap;html=1;fillColor=#dae8fc;strokeColor=#6c8ebf;" vertex="1" parent="7il1dGLbTCJR8h2ghz_C-62">
          <mxGeometry x="15" y="90" width="120" height="30" as="geometry" />
        </mxCell>
        <mxCell id="7il1dGLbTCJR8h2ghz_C-66" value="ID" style="rounded=0;whiteSpace=wrap;html=1;fillColor=#dae8fc;strokeColor=#6c8ebf;" vertex="1" parent="7il1dGLbTCJR8h2ghz_C-62">
          <mxGeometry x="15" y="140" width="120" height="30" as="geometry" />
        </mxCell>
        <mxCell id="7il1dGLbTCJR8h2ghz_C-70" value="CU" style="rounded=0;whiteSpace=wrap;html=1;fillColor=#dae8fc;strokeColor=#6c8ebf;" vertex="1" parent="7il1dGLbTCJR8h2ghz_C-62">
          <mxGeometry x="14" y="190" width="120" height="30" as="geometry" />
        </mxCell>
        <mxCell id="7il1dGLbTCJR8h2ghz_C-71" value="" style="edgeStyle=orthogonalEdgeStyle;rounded=0;orthogonalLoop=1;jettySize=auto;html=1;" edge="1" parent="7il1dGLbTCJR8h2ghz_C-62" source="7il1dGLbTCJR8h2ghz_C-66" target="7il1dGLbTCJR8h2ghz_C-70">
          <mxGeometry relative="1" as="geometry" />
        </mxCell>
      </root>
    </mxGraphModel>
  </diagram>
</mxfile>
